<svg xmlns="http://www.w3.org/2000/svg" viewBox="0 0 320 320" role="img" aria-label="Hogar Nazareth">
  <title>Hogar Nazareth</title>
  <defs>
    <clipPath id="ring-clip-mark">
      <circle cx="160" cy="160" r="128"></circle>
    </clipPath>
  </defs>

  <circle cx="160" cy="160" r="138" fill="none" stroke="#9ED7DC" stroke-width="14"></circle>

  <g clip-path="url(#ring-clip-mark)">
    <circle cx="160" cy="160" r="128" fill="#EAF4F5"></circle>

    <path d="M 78 170 L 160 96 L 242 170 L 242 250 L 78 250 Z" fill="#19B0B8"></path>
    <rect x="205" y="108" width="18" height="30" fill="#19B0B8"></rect>

    <path d="M 100 178 L 160 124 L 220 178 L 220 240 L 100 240 Z" fill="#EAF4F5"></path>

    <circle cx="130" cy="176" r="12" fill="#19B0B8"></circle>
    <circle cx="190" cy="176" r="12" fill="#19B0B8"></circle>
    <circle cx="160" cy="200" r="9" fill="#19B0B8"></circle>
    <path d="M 112 240 Q 130 198 148 240 Z" fill="#19B0B8"></path>
    <path d="M 172 240 Q 190 198 208 240 Z" fill="#19B0B8"></path>
    <path d="M 146 240 Q 160 216 174 240 Z" fill="#19B0B8"></path>

    <path d="M 40 240 Q 60 290 120 300 Q 160 306 200 300 Q 260 290 280 240 L 280 320 L 40 320 Z" fill="#C9E3E6"></path>
    <path d="M 255 248 Q 275 240 278 258 Q 278 272 262 276 Z" fill="#9ED7DC"></path>
  </g>
</svg>